<svg width="264" height="67" viewBox="0 0 264 67" fill="none" xmlns="http://www.w3.org/2000/svg">
<path d="M41.1427 20.6934C41.1427 23.7654 40.4174 26.4534 38.9667 28.7574C37.5587 31.0188 35.7027 32.8748 33.3987 34.3254L45.5587 54.7414H31.0947L21.4947 37.5254H13.3027V54.7414H0.182715V13.3334C0.182715 11.4988 0.332049 9.94142 0.630715 8.66142C0.972049 7.38142 1.52672 6.33609 2.29472 5.52542C3.06272 4.71475 4.08672 4.13875 5.36672 3.79742C6.64672 3.41342 8.24672 3.22142 10.1667 3.22142H21.9427C24.716 3.22142 27.276 3.56275 29.6227 4.24542C31.9694 4.88542 33.996 5.90942 35.7027 7.31742C37.4094 8.68275 38.7321 10.4108 39.6707 12.5014C40.652 14.5921 41.1427 17.0668 41.1427 19.9254V20.6934ZM13.3027 26.7094H21.6227C23.7987 26.7094 25.4201 26.1121 26.4867 24.9174C27.5961 23.7228 28.1507 22.3148 28.1507 20.6934V20.2454C28.1507 18.6241 27.5961 17.2161 26.4867 16.0214C25.4201 14.8268 23.7987 14.2294 21.6227 14.2294H15.1587C14.4334 14.2294 13.9427 14.3574 13.6867 14.6134C13.4307 14.8268 13.3027 15.3174 13.3027 16.0854V26.7094ZM69.9607 54.7414L69.4487 52.0534C68.2114 53.2054 66.7607 54.1228 65.0967 54.8054C63.4327 55.4881 61.6407 55.8294 59.7207 55.8294H58.3127C56.9901 55.8294 55.5607 55.6161 54.0247 55.1894C52.4887 54.8054 51.0594 54.1228 49.7367 53.1414C48.4567 52.1601 47.3687 50.8374 46.4727 49.1734C45.6194 47.5094 45.1927 45.4188 45.1927 42.9014C45.1927 40.4694 45.6194 38.4428 46.4727 36.8214C47.326 35.2001 48.4567 33.8988 49.8647 32.9174C51.3154 31.9361 52.9794 31.2321 54.8567 30.8054C56.7767 30.3788 58.7821 30.1654 60.8727 30.1654H67.4647C67.4221 29.2268 67.2301 28.4588 66.8887 27.8614C66.5901 27.2214 66.1634 26.7308 65.6087 26.3894C65.0967 26.0054 64.4781 25.7494 63.7527 25.6214C63.0701 25.4508 62.3447 25.3654 61.5767 25.3654C60.8514 25.3654 60.1474 25.4294 59.4647 25.5574C58.7821 25.6854 58.0567 25.8561 57.2887 26.0694C56.7767 26.2401 56.2861 26.4321 55.8167 26.6454C55.3901 26.8588 54.8781 27.0934 54.2807 27.3494C53.6834 27.6481 53.0434 27.8188 52.3607 27.8614C51.7207 27.8614 51.0807 27.7761 50.4407 27.6054C49.8007 27.3921 49.2034 27.0721 48.6487 26.6454C48.1367 26.2188 47.7314 25.6854 47.4327 25.0454C46.8354 23.7654 46.75 22.5281 47.1767 21.3334C47.6034 20.0961 48.3714 19.0508 49.4807 18.1974C50.334 17.5574 51.294 17.0241 52.3607 16.5974C53.4274 16.1708 54.5367 15.8294 55.6887 15.5734C56.8407 15.2748 57.9927 15.0614 59.1447 14.9334C60.3394 14.8054 61.4914 14.7414 62.6007 14.7414C64.9047 14.7414 67.1021 14.9974 69.1927 15.5094C71.3261 15.9788 73.1821 16.8534 74.7607 18.1334C76.3821 19.3708 77.6621 21.0988 78.6007 23.3174C79.5821 25.5361 80.0727 28.3734 80.0727 31.8294V54.7414H69.9607ZM67.4647 39.5734H61.6407C60.4034 39.5734 59.4647 39.8721 58.8247 40.4694C58.1847 41.0241 57.8647 41.8134 57.8647 42.8374C57.8647 43.9041 58.1847 44.6934 58.8247 45.2054C59.4647 45.7174 60.3394 45.9734 61.4487 45.9734H62.3447C62.9421 45.9734 63.5394 45.8881 64.1367 45.7174C64.7341 45.5468 65.2674 45.2908 65.7367 44.9494C66.2487 44.6081 66.6541 44.1814 66.9527 43.6694C67.2941 43.1574 67.4647 42.5601 67.4647 41.8774V39.5734ZM84.9917 54.7414V21.1414C84.9917 20.0748 85.1624 19.1574 85.5037 18.3894C85.8877 17.5788 86.3784 16.9174 86.9757 16.4054C87.5731 15.8508 88.2557 15.4454 89.0237 15.1894C89.7917 14.8908 90.6024 14.7414 91.4557 14.7414C92.6931 14.7414 93.8451 15.0401 94.9117 15.6374C96.0211 16.2348 96.8531 17.1094 97.4077 18.2614C98.6451 17.1094 100.074 16.2348 101.696 15.6374C103.36 15.0401 105.045 14.7414 106.752 14.7414C108.8 14.7414 110.698 15.0188 112.448 15.5734C114.24 16.1281 115.776 17.0881 117.056 18.4534C118.378 19.7761 119.424 21.5681 120.192 23.8294C120.96 26.0908 121.344 28.9068 121.344 32.2774V54.7414H108.16V31.5094C108.16 30.4428 107.989 29.5468 107.648 28.8214C107.349 28.0534 106.944 27.4348 106.432 26.9654C105.962 26.4961 105.429 26.1761 104.832 26.0054C104.234 25.7921 103.658 25.6854 103.104 25.6854C102.549 25.6854 101.973 25.7921 101.376 26.0054C100.778 26.1761 100.224 26.4961 99.7117 26.9654C99.1997 27.4348 98.7731 28.0534 98.4317 28.8214C98.1331 29.5468 97.9837 30.4428 97.9837 31.5094V54.7414H84.9917ZM126.402 7.06142C126.402 5.99475 126.573 5.07742 126.914 4.30942C127.298 3.49875 127.789 2.83742 128.386 2.32542C128.984 1.77075 129.666 1.36542 130.434 1.10942C131.202 0.810753 132.013 0.661419 132.866 0.661419C134.53 0.661419 136.002 1.19475 137.282 2.26142C138.562 3.32809 139.202 4.92809 139.202 7.06142V29.3334L150.53 16.8534C151.085 16.2561 151.725 15.7654 152.45 15.3814C153.218 14.9974 153.986 14.7628 154.754 14.6774C155.565 14.5494 156.376 14.5921 157.186 14.8054C157.997 14.9761 158.744 15.3174 159.426 15.8294C160.109 16.3414 160.642 16.9814 161.026 17.7494C161.41 18.5174 161.624 19.3281 161.666 20.1814C161.752 20.9921 161.666 21.8028 161.41 22.6134C161.154 23.4241 160.728 24.1068 160.13 24.6614L151.682 32.7894L165.826 54.7414H151.362L143.042 41.0454L139.202 44.7574V54.7414H126.402V7.06142ZM167.127 21.5894C167.127 19.3708 167.767 17.7494 169.047 16.7254C170.369 15.7014 171.927 15.1894 173.719 15.1894C175.511 15.1894 177.047 15.7014 178.327 16.7254C179.649 17.7494 180.311 19.3708 180.311 21.5894V54.7414H167.127V21.5894ZM167.063 6.54942C167.063 4.45875 167.724 2.96542 169.047 2.06942C170.369 1.13075 171.927 0.661419 173.719 0.661419C175.511 0.661419 177.068 1.13075 178.391 2.06942C179.713 2.96542 180.375 4.45875 180.375 6.54942C180.375 7.61609 180.183 8.53342 179.799 9.30142C179.457 10.0268 178.988 10.6241 178.391 11.0934C177.793 11.5628 177.089 11.9041 176.279 12.1174C175.468 12.3308 174.615 12.4374 173.719 12.4374C172.823 12.4374 171.969 12.3308 171.159 12.1174C170.348 11.9041 169.644 11.5628 169.047 11.0934C168.449 10.6241 167.959 10.0268 167.575 9.30142C167.233 8.53342 167.063 7.61609 167.063 6.54942ZM185.777 54.7414V21.1414C185.777 20.0748 185.947 19.1574 186.289 18.3894C186.673 17.5788 187.163 16.9174 187.761 16.4054C188.358 15.8508 189.041 15.4454 189.809 15.1894C190.577 14.8908 191.387 14.7414 192.241 14.7414C193.478 14.7414 194.63 15.0401 195.697 15.6374C196.806 16.2348 197.638 17.1094 198.193 18.2614C199.43 17.1094 200.859 16.2348 202.481 15.6374C204.145 15.0401 205.83 14.7414 207.537 14.7414C209.585 14.7414 211.483 15.0188 213.233 15.5734C215.025 16.1281 216.561 17.0881 217.841 18.4534C219.163 19.7761 220.209 21.5681 220.977 23.8294C221.745 26.0908 222.129 28.9068 222.129 32.2774V54.7414H208.945V31.5094C208.945 30.4428 208.774 29.5468 208.433 28.8214C208.134 28.0534 207.729 27.4348 207.217 26.9654C206.747 26.4961 206.214 26.1761 205.617 26.0054C205.019 25.7921 204.443 25.6854 203.889 25.6854C203.334 25.6854 202.758 25.7921 202.161 26.0054C201.563 26.1761 201.009 26.4961 200.497 26.9654C199.985 27.4348 199.558 28.0534 199.217 28.8214C198.918 29.5468 198.769 30.4428 198.769 31.5094V54.7414H185.777ZM263.539 49.9414C263.539 51.6908 263.283 53.5041 262.771 55.3814C262.302 57.2588 261.342 58.9654 259.891 60.5014C258.483 62.0801 256.457 63.4028 253.811 64.4694C251.166 65.5788 247.689 66.2188 243.379 66.3894C242.782 66.4321 242.057 66.4108 241.203 66.3254C240.393 66.2828 239.539 66.1761 238.643 66.0054C237.747 65.8774 236.894 65.6854 236.083 65.4294C235.273 65.2161 234.611 64.9601 234.099 64.6614C233.118 64.1068 232.414 63.2108 231.987 61.9734C231.603 60.7788 231.625 59.6268 232.051 58.5174C232.435 57.4934 233.097 56.6828 234.035 56.0854C234.974 55.4881 235.998 55.2748 237.107 55.4454C238.046 55.5734 239.027 55.7014 240.051 55.8294C241.075 55.9574 242.185 56.0214 243.379 56.0214C244.745 56.0214 245.918 55.8508 246.899 55.5094C247.881 55.2108 248.691 54.7841 249.331 54.2294C249.971 53.6748 250.441 53.0561 250.739 52.3734C251.038 51.6908 251.187 50.9868 251.187 50.2614V49.1094C250.078 50.2188 248.755 51.0934 247.219 51.7334C245.683 52.3308 243.934 52.6294 241.971 52.6294C239.838 52.6294 237.833 52.3521 235.955 51.7974C234.121 51.2428 232.499 50.3041 231.091 48.9814C229.683 47.6161 228.574 45.8241 227.763 43.6054C226.953 41.3441 226.547 38.5494 226.547 35.2214V32.4054C226.547 29.0348 226.953 26.2188 227.763 23.9574C228.574 21.6961 229.683 19.8828 231.091 18.5174C232.499 17.1521 234.142 16.1921 236.019 15.6374C237.897 15.0401 239.902 14.7414 242.035 14.7414C243.657 14.7414 245.278 15.0401 246.899 15.6374C248.521 16.2348 249.95 17.1308 251.187 18.3254C251.699 17.1308 252.489 16.2348 253.555 15.6374C254.665 15.0401 255.859 14.7414 257.139 14.7414C258.846 14.7414 260.339 15.2748 261.619 16.3414C262.899 17.4081 263.539 19.0081 263.539 21.1414V49.9414ZM239.731 36.3734C239.731 37.4828 239.902 38.4001 240.243 39.1254C240.627 39.8508 241.075 40.4481 241.587 40.9174C242.142 41.3868 242.739 41.7281 243.379 41.9414C244.019 42.1121 244.617 42.1974 245.171 42.1974C245.726 42.1974 246.302 42.1121 246.899 41.9414C247.539 41.7281 248.115 41.4081 248.627 40.9814C249.182 40.5548 249.651 40.0001 250.035 39.3174C250.419 38.5921 250.633 37.7174 250.675 36.6934V31.1894C250.633 30.1654 250.419 29.3121 250.035 28.6294C249.651 27.9041 249.182 27.3281 248.627 26.9014C248.115 26.4748 247.539 26.1761 246.899 26.0054C246.302 25.7921 245.726 25.6854 245.171 25.6854C244.617 25.6854 244.019 25.7921 243.379 26.0054C242.739 26.1761 242.142 26.4961 241.587 26.9654C241.075 27.4348 240.627 28.0534 240.243 28.8214C239.902 29.5468 239.731 30.4428 239.731 31.5094V36.3734Z" fill="white"/>
</svg>
