<svg width="411" height="66" viewBox="0 0 411 66" fill="none" xmlns="http://www.w3.org/2000/svg">
<g filter="url(#filter0_d_6863_915)">
<g opacity="0.6">
<path d="M108.251 31.4276H92.4642C91.7678 31.4276 91.3037 30.9636 91.3037 30.2671V27.9453H109.412V30.2671C109.412 30.8477 108.948 31.4276 108.251 31.4276Z" fill="white"/>
<path d="M100.358 12.2853C101.384 12.2853 102.215 11.4539 102.215 10.4283C102.215 9.40269 101.384 8.57129 100.358 8.57129C99.3324 8.57129 98.501 9.40269 98.501 10.4283C98.501 11.4539 99.3324 12.2853 100.358 12.2853Z" fill="white"/>
<path d="M112.43 16.8019C113.456 16.8019 114.287 15.9705 114.287 14.9449C114.287 13.9193 113.456 13.0879 112.43 13.0879C111.405 13.0879 110.573 13.9193 110.573 14.9449C110.573 15.9705 111.405 16.8019 112.43 16.8019Z" fill="white"/>
<path d="M88.2857 16.8019C89.3113 16.8019 90.1427 15.9705 90.1427 14.9449C90.1427 13.9193 89.3113 13.0879 88.2857 13.0879C87.2601 13.0879 86.4287 13.9193 86.4287 14.9449C86.4287 15.9705 87.2601 16.8019 88.2857 16.8019Z" fill="white"/>
<path d="M109.412 27.9463L111.467 16.9085C111.558 16.4202 111.039 16.0463 110.605 16.289L106.942 18.3366C105.919 18.9084 104.628 18.5778 104.006 17.5851L100.855 12.5611C100.625 12.1945 100.091 12.1945 99.8614 12.5611L96.7104 17.5851C96.088 18.5778 94.797 18.9077 93.7743 18.3366L90.1116 16.289C89.6776 16.0463 89.1578 16.4195 89.2487 16.9085L91.3044 27.9463" fill="white"/>
<path d="M109.412 27.9463L111.467 16.9085C111.558 16.4202 111.039 16.0463 110.605 16.289L106.942 18.3366C105.919 18.9084 104.628 18.5778 104.006 17.5851L100.855 12.5611C100.625 12.1945 100.091 12.1945 99.8614 12.5611L96.7104 17.5851C96.088 18.5778 94.797 18.9077 93.7743 18.3366L90.1116 16.289C89.6776 16.0463 89.1578 16.4195 89.2487 16.9085L91.3044 27.9463" fill="white"/>
</g>
<path d="M152.269 31.1244H129.371V27.2667H138.829V23.3778C137.128 23.1911 135.635 22.7556 134.349 22.0711C133.063 21.3867 132.067 20.5156 131.362 19.4578C130.678 18.4 130.336 17.2074 130.336 15.88C130.336 14.4074 130.771 13.1007 131.642 11.96C132.534 10.7985 133.768 9.90667 135.344 9.28444C136.941 8.64148 138.767 8.32 140.82 8.32C142.894 8.32 144.719 8.64148 146.296 9.28444C147.893 9.90667 149.127 10.7985 149.998 11.96C150.869 13.1007 151.304 14.4074 151.304 15.88C151.304 17.2074 150.952 18.4 150.247 19.4578C149.562 20.5156 148.577 21.3867 147.291 22.0711C146.005 22.7556 144.512 23.1911 142.811 23.3778V27.2667H152.269V31.1244ZM134.473 15.88C134.473 17.0415 135.054 17.9852 136.216 18.7111C137.398 19.4163 138.933 19.7689 140.82 19.7689C142.707 19.7689 144.232 19.4163 145.393 18.7111C146.576 17.9852 147.167 17.0415 147.167 15.88C147.167 14.7393 146.576 13.8163 145.393 13.1111C144.232 12.3852 142.707 12.0222 140.82 12.0222C138.933 12.0222 137.398 12.3852 136.216 13.1111C135.054 13.8163 134.473 14.7393 134.473 15.88ZM175.132 13.1422V16.2533H154.91V8.04H158.799V13.1422H175.132ZM153.448 20.64V17.5911H176.346V20.64H153.448ZM158.737 28.0444V29.2889H175.226V31.9644H154.879V25.7733H171.088V24.5911H154.817V21.9467H174.946V28.0444H158.737ZM195.413 32.0578V8.16444H199.302V32.0578H195.413ZM185.396 8.41333C186.765 8.41333 187.988 8.73481 189.067 9.37778C190.166 10.0207 191.016 10.923 191.618 12.0844C192.24 13.2459 192.551 14.5837 192.551 16.0978C192.551 17.6119 192.24 18.96 191.618 20.1422C191.016 21.3037 190.166 22.2059 189.067 22.8489C187.988 23.4919 186.765 23.8133 185.396 23.8133C184.006 23.8133 182.762 23.4919 181.662 22.8489C180.563 22.2059 179.702 21.3037 179.08 20.1422C178.479 18.96 178.178 17.6119 178.178 16.0978C178.178 14.5837 178.479 13.2459 179.08 12.0844C179.702 10.923 180.563 10.0207 181.662 9.37778C182.762 8.73481 184.006 8.41333 185.396 8.41333ZM185.396 12.1156C184.359 12.1156 183.529 12.4993 182.907 13.2667C182.305 14.0133 182.005 14.957 182.005 16.0978C182.005 17.28 182.305 18.2444 182.907 18.9911C183.529 19.717 184.359 20.08 185.396 20.08C186.412 20.08 187.231 19.7067 187.853 18.96C188.476 18.2133 188.787 17.2593 188.787 16.0978C188.787 14.957 188.476 14.0133 187.853 13.2667C187.231 12.4993 186.412 12.1156 185.396 12.1156ZM193.92 29.8178C193.215 30.1496 192.282 30.4089 191.12 30.5956C189.959 30.7615 188.714 30.8444 187.387 30.8444H177.525V26.9867H187.542C188.808 26.9867 190 26.9037 191.12 26.7378C192.261 26.5719 193.194 26.323 193.92 25.9911V29.8178Z" fill="white"/>
<path d="M205.158 12.8V9.22222H222.86V12.8H216.109V31H211.94V12.8H205.158ZM233.297 31.3422C231.181 31.3422 229.273 30.8548 227.572 29.88C225.871 28.9052 224.534 27.5674 223.559 25.8667C222.584 24.1452 222.097 22.2267 222.097 20.1111C222.097 17.9956 222.584 16.0874 223.559 14.3867C224.534 12.6652 225.871 11.317 227.572 10.3422C229.273 9.36741 231.181 8.88 233.297 8.88C235.412 8.88 237.32 9.36741 239.021 10.3422C240.743 11.317 242.091 12.6548 243.066 14.3556C244.04 16.0563 244.528 17.9748 244.528 20.1111C244.528 22.2474 244.04 24.1659 243.066 25.8667C242.091 27.5674 240.743 28.9052 239.021 29.88C237.32 30.8548 235.412 31.3422 233.297 31.3422ZM233.297 27.5778C234.624 27.5778 235.817 27.2667 236.874 26.6444C237.953 26.0015 238.793 25.12 239.394 24C240.017 22.8593 240.328 21.563 240.328 20.1111C240.328 18.6593 240.017 17.363 239.394 16.2222C238.793 15.0815 237.953 14.2 236.874 13.5778C235.817 12.9348 234.624 12.6133 233.297 12.6133C231.99 12.6133 230.797 12.9348 229.719 13.5778C228.661 14.2 227.821 15.0815 227.199 16.2222C226.597 17.363 226.297 18.6593 226.297 20.1111C226.297 21.563 226.597 22.8593 227.199 24C227.821 25.12 228.661 26.0015 229.719 26.6444C230.777 27.2667 231.969 27.5778 233.297 27.5778ZM255.473 9.22222C257.277 9.22222 258.843 9.53333 260.17 10.1556C261.519 10.7778 262.545 11.68 263.25 12.8622C263.976 14.0237 264.339 15.403 264.339 17C264.339 18.597 263.976 19.9867 263.25 21.1689C262.545 22.3304 261.519 23.2222 260.17 23.8444C258.843 24.4667 257.277 24.7778 255.473 24.7778H250.962V31H246.824V9.22222H255.473ZM255.255 21.2C256.831 21.2 258.034 20.837 258.864 20.1111C259.714 19.3644 260.139 18.3274 260.139 17C260.139 15.6726 259.714 14.6459 258.864 13.92C258.034 13.1733 256.831 12.8 255.255 12.8H250.962V21.2H255.255ZM275.646 18.2133C277.658 18.4622 279.193 19.1467 280.25 20.2667C281.308 21.3659 281.837 22.7556 281.837 24.4356C281.837 25.7007 281.515 26.8622 280.873 27.92C280.23 28.957 279.244 29.7867 277.917 30.4089C276.61 31.0311 275.003 31.3422 273.095 31.3422C271.56 31.3422 270.067 31.1244 268.615 30.6889C267.163 30.2533 265.929 29.6519 264.912 28.8844L266.655 25.5556C267.464 26.1985 268.418 26.7067 269.517 27.08C270.637 27.4533 271.798 27.64 273.001 27.64C274.412 27.64 275.501 27.36 276.268 26.8C277.056 26.24 277.45 25.4519 277.45 24.4356C277.45 23.4607 277.077 22.7037 276.33 22.1644C275.604 21.6252 274.474 21.3556 272.939 21.3556H270.824V18.4622L275.677 12.7378H265.939V9.22222H280.873V12.0533L275.646 18.2133Z" fill="white"/>
<g opacity="0.6">
<path d="M319.252 31.4276H303.465C302.768 31.4276 302.304 30.9636 302.304 30.2671V27.9453H320.412V30.2671C320.412 30.8477 319.948 31.4276 319.252 31.4276Z" fill="white"/>
<path d="M311.358 12.2853C312.384 12.2853 313.215 11.4539 313.215 10.4283C313.215 9.40269 312.384 8.57129 311.358 8.57129C310.332 8.57129 309.501 9.40269 309.501 10.4283C309.501 11.4539 310.332 12.2853 311.358 12.2853Z" fill="white"/>
<path d="M323.431 16.8019C324.456 16.8019 325.288 15.9705 325.288 14.9449C325.288 13.9193 324.456 13.0879 323.431 13.0879C322.405 13.0879 321.574 13.9193 321.574 14.9449C321.574 15.9705 322.405 16.8019 323.431 16.8019Z" fill="white"/>
<path d="M299.286 16.8019C300.312 16.8019 301.143 15.9705 301.143 14.9449C301.143 13.9193 300.312 13.0879 299.286 13.0879C298.261 13.0879 297.429 13.9193 297.429 14.9449C297.429 15.9705 298.261 16.8019 299.286 16.8019Z" fill="white"/>
<path d="M320.412 27.9463L322.468 16.9085C322.559 16.4202 322.039 16.0463 321.605 16.289L317.942 18.3366C316.92 18.9084 315.629 18.5778 315.006 17.5851L311.855 12.5611C311.625 12.1945 311.091 12.1945 310.862 12.5611L307.711 17.5851C307.089 18.5778 305.797 18.9077 304.775 18.3366L301.112 16.289C300.678 16.0463 300.158 16.4195 300.249 16.9085L302.305 27.9463" fill="white"/>
<path d="M320.412 27.9463L322.468 16.9085C322.559 16.4202 322.039 16.0463 321.605 16.289L317.942 18.3366C316.92 18.9084 315.629 18.5778 315.006 17.5851L311.855 12.5611C311.625 12.1945 311.091 12.1945 310.862 12.5611L307.711 17.5851C307.089 18.5778 305.797 18.9077 304.775 18.3366L301.112 16.289C300.678 16.0463 300.158 16.4195 300.249 16.9085L302.305 27.9463" fill="white"/>
</g>
</g>
<path d="M0.755556 49.8889V48.4444H12.7333V49.8889H7.55556V64H5.95556V49.8889H0.755556ZM20.1463 64.1556C18.6796 64.1556 17.3537 63.8148 16.1685 63.1333C14.9833 62.437 14.05 61.4889 13.3685 60.2889C12.7018 59.0741 12.3685 57.7185 12.3685 56.2222C12.3685 54.7259 12.7018 53.3778 13.3685 52.1778C14.05 50.963 14.9833 50.0148 16.1685 49.3333C17.3537 48.637 18.6796 48.2889 20.1463 48.2889C21.6129 48.2889 22.9389 48.637 24.124 49.3333C25.324 50.0148 26.2574 50.963 26.924 52.1778C27.6055 53.3778 27.9463 54.7259 27.9463 56.2222C27.9463 57.7185 27.6055 59.0741 26.924 60.2889C26.2574 61.4889 25.324 62.437 24.124 63.1333C22.9389 63.8148 21.6129 64.1556 20.1463 64.1556ZM20.1463 62.6667C21.3166 62.6667 22.3685 62.3926 23.3018 61.8444C24.25 61.2815 24.9907 60.5111 25.524 59.5333C26.0574 58.5556 26.324 57.4519 26.324 56.2222C26.324 54.9926 26.0574 53.8889 25.524 52.9111C24.9907 51.9333 24.25 51.1704 23.3018 50.6222C22.3685 50.0593 21.3166 49.7778 20.1463 49.7778C18.9907 49.7778 17.9463 50.0593 17.0129 50.6222C16.0796 51.1704 15.3463 51.9333 14.8129 52.9111C14.2796 53.8889 14.0129 54.9926 14.0129 56.2222C14.0129 57.4519 14.2796 58.5556 14.8129 59.5333C15.3463 60.5111 16.0796 61.2815 17.0129 61.8444C17.9463 62.3926 18.9907 62.6667 20.1463 62.6667ZM35.4859 48.4444C37.3822 48.4444 38.8637 48.9185 39.9304 49.8667C41.0119 50.8 41.5526 52.0963 41.5526 53.7556C41.5526 55.4148 41.0119 56.7185 39.9304 57.6667C38.8637 58.6148 37.3822 59.0889 35.4859 59.0889H31.5526V64H29.9526V48.4444H35.4859ZM35.4415 57.6444C36.9082 57.6444 38.0193 57.3111 38.7748 56.6444C39.5452 55.963 39.9304 55 39.9304 53.7556C39.9304 52.5111 39.5452 51.5556 38.7748 50.8889C38.0045 50.2222 36.8933 49.8889 35.4415 49.8889H31.5526V57.6444H35.4415ZM52.7847 55.1333C54.4144 55.2074 55.6588 55.6444 56.5181 56.4444C57.3773 57.2296 57.8069 58.2593 57.8069 59.5333C57.8069 60.4222 57.5921 61.2148 57.1625 61.9111C56.7329 62.6074 56.0958 63.1556 55.2514 63.5556C54.4069 63.9556 53.3773 64.1556 52.1625 64.1556C51.0366 64.1556 49.9699 63.9778 48.9625 63.6222C47.9699 63.2519 47.1773 62.763 46.5847 62.1556L47.3181 60.8889C47.8366 61.4222 48.5181 61.8593 49.3625 62.2C50.2218 62.5259 51.1403 62.6889 52.1181 62.6889C53.4069 62.6889 54.3921 62.4074 55.0736 61.8444C55.7699 61.2815 56.1181 60.5111 56.1181 59.5333C56.1181 58.5556 55.7699 57.7926 55.0736 57.2444C54.3921 56.6963 53.3477 56.4222 51.9403 56.4222H50.8292V55.2889L55.1181 49.8667H47.1847V48.4444H57.1847V49.5778L52.7847 55.1333ZM73.1246 64.7556V47.6889H74.7023V64.7556H73.1246ZM65.1912 48.0889C66.1394 48.0889 66.9912 48.3185 67.7468 48.7778C68.5023 49.2222 69.0875 49.8519 69.5023 50.6667C69.932 51.4815 70.1468 52.4074 70.1468 53.4444C70.1468 54.4667 69.932 55.3852 69.5023 56.2C69.0727 57.0148 68.4801 57.6519 67.7246 58.1111C66.9838 58.5556 66.1394 58.7778 65.1912 58.7778C64.2283 58.7778 63.369 58.5556 62.6135 58.1111C61.8579 57.6519 61.2653 57.0222 60.8357 56.2222C60.406 55.4074 60.1912 54.4815 60.1912 53.4444C60.1912 52.4074 60.406 51.4815 60.8357 50.6667C61.2653 49.8519 61.8579 49.2222 62.6135 48.7778C63.369 48.3185 64.2283 48.0889 65.1912 48.0889ZM65.1912 49.6222C64.169 49.6222 63.3394 49.9852 62.7023 50.7111C62.0801 51.4222 61.769 52.3333 61.769 53.4444C61.769 54.5407 62.0801 55.4519 62.7023 56.1778C63.3394 56.8889 64.169 57.2444 65.1912 57.2444C66.1986 57.2444 67.0135 56.8889 67.6357 56.1778C68.2727 55.4519 68.5912 54.5407 68.5912 53.4444C68.5912 52.3481 68.2727 51.437 67.6357 50.7111C67.0135 49.9852 66.1986 49.6222 65.1912 49.6222ZM71.6579 62.8667C71.1246 63.1333 70.3616 63.3407 69.369 63.4889C68.3764 63.6222 67.2505 63.6889 65.9912 63.6889H59.6135V62.1111H66.1023C67.3172 62.1111 68.406 62.0444 69.369 61.9111C70.3468 61.763 71.1098 61.5556 71.6579 61.2889V62.8667ZM86.1612 53.8C85.6279 54.7185 84.9242 55.4741 84.0501 56.0667C83.176 56.6593 82.176 57.037 81.0501 57.2V55.7111C82.2945 55.5037 83.3168 54.963 84.1168 54.0889C84.9168 53.2 85.413 52.0889 85.6056 50.7556H81.2056V49.3333H85.6501V47.3778H87.2723V49.3333H91.6501V50.7556H87.2501C87.176 51.3778 87.0501 51.9556 86.8723 52.4889L91.9168 55.7333L91.139 57.0222L86.1612 53.8ZM95.4056 53.2V57.6H93.8056V47.6889H95.4056V51.6H97.7612V53.2H95.4056ZM95.4056 58.6V64.4889H81.9612V58.6H95.4056ZM93.8056 63.0889V60H83.5834V63.0889H93.8056ZM113.181 64.7556H111.603V59.8667H108.67L108.781 58.2889H111.603V53.6889H108.781L108.67 52.0889H111.603V47.6889H113.181V64.7556ZM103.448 48.1333C104.9 48.1333 106.048 48.8 106.892 50.1333C107.751 51.4519 108.181 53.4148 108.181 56.0222C108.181 58.6296 107.751 60.6 106.892 61.9333C106.048 63.2519 104.9 63.9111 103.448 63.9111C101.981 63.9111 100.818 63.2519 99.9589 61.9333C99.0996 60.6 98.67 58.6296 98.67 56.0222C98.67 53.4148 99.0996 51.4519 99.9589 50.1333C100.818 48.8 101.981 48.1333 103.448 48.1333ZM103.448 62.3778C104.396 62.3778 105.151 61.8519 105.714 60.8C106.292 59.7481 106.581 58.1556 106.581 56.0222C106.581 53.9037 106.292 52.3185 105.714 51.2667C105.151 50.2 104.396 49.6667 103.448 49.6667C102.485 49.6667 101.714 50.2 101.137 51.2667C100.559 52.3185 100.27 53.9037 100.27 56.0222C100.27 58.1556 100.551 59.7481 101.114 60.8C101.692 61.8519 102.47 62.3778 103.448 62.3778ZM129.801 56.3556V64.7556H128.201V47.6889H129.801V54.7556H132.157V56.3556H129.801ZM121.734 49.9111C121.705 52.0593 121.542 53.9556 121.245 55.6L126.557 62.5556L125.29 63.5333L120.734 57.5111C120.201 59.3333 119.482 60.7778 118.579 61.8444C117.675 62.8963 116.623 63.5111 115.423 63.6889V62.0222C116.386 61.8148 117.216 61.1704 117.912 60.0889C118.608 58.9926 119.142 57.5704 119.512 55.8222C119.897 54.0741 120.105 52.1037 120.134 49.9111H115.779V48.3556H125.979V49.9111H121.734ZM147.91 64.7556H146.376V47.6889H147.91V64.7556ZM143.999 47.7778V64.4667H142.465V56.5333H140.132C140.088 59.037 139.754 60.8963 139.132 62.1111C138.51 63.3111 137.599 63.9111 136.399 63.9111C135.169 63.9111 134.236 63.2741 133.599 62C132.976 60.7111 132.665 58.7185 132.665 56.0222C132.665 50.763 133.91 48.1333 136.399 48.1333C138.725 48.1333 139.962 50.3926 140.11 54.9111H142.465V47.7778H143.999ZM136.399 62.3778C137.139 62.3778 137.688 61.8593 138.043 60.8222C138.413 59.7704 138.599 58.1704 138.599 56.0222C138.599 53.8741 138.413 52.2815 138.043 51.2444C137.688 50.1926 137.139 49.6667 136.399 49.6667C135.658 49.6667 135.102 50.1926 134.732 51.2444C134.376 52.2815 134.199 53.8741 134.199 56.0222C134.199 58.1704 134.376 59.7704 134.732 60.8222C135.102 61.8593 135.658 62.3778 136.399 62.3778ZM165.107 64.7556H163.552V47.6889H165.107V64.7556ZM161.063 47.7778V64.4667H159.53V56.2889H156.418C156.018 58.5556 155.248 60.3481 154.107 61.6667C152.981 62.9852 151.618 63.6444 150.018 63.6444V62.0667C151.056 62.0519 151.959 61.6593 152.73 60.8889C153.5 60.1185 154.093 59.0519 154.507 57.6889C154.937 56.3111 155.152 54.7259 155.152 52.9333V49.8889H150.018V48.3556H156.685V52.8444C156.685 53.4667 156.663 54.0815 156.618 54.6889H159.53V47.7778H161.063ZM181.949 52.7778V54.2444H168.016V47.7111H169.616V52.7778H181.949ZM166.794 57.8V56.3556H182.972V57.8H166.794ZM182.105 63.0444V64.5111H167.972V59.4667H169.594V63.0444H182.105Z" fill="#F6F7FB"/>
<path d="M196.267 52.2667C195.422 52.7704 194.393 53.1556 193.178 53.4222C191.978 53.6889 190.719 53.837 189.4 53.8667V51.6444C190.689 51.6148 191.881 51.4519 192.978 51.1556C194.074 50.8593 194.844 50.4444 195.289 49.9111H189.6V47.7556H204V49.9111H198.422C198.378 50.1037 198.296 50.3111 198.178 50.5333L204.4 51.8L203.822 53.9333L196.267 52.2667ZM204.978 56.7333H188.622V54.5556H204.978V56.7333ZM204.178 62.7333V64.6889H189.644V60.3333H201.222V59.5111H189.6V57.6222H203.978V61.9111H192.4V62.7333H204.178ZM221.442 64.7556H218.642V56.9333H214.953C214.361 59.1259 213.324 60.8296 211.842 62.0444C210.361 63.2593 208.553 63.8667 206.42 63.8667V61.0667C208.42 61.0667 209.953 60.3259 211.02 58.8444C212.087 57.3481 212.62 55.2815 212.62 52.6444V50.8444H206.42V48.1556H215.487V52.6222C215.487 52.9778 215.457 53.4963 215.398 54.1778H218.642V47.6889H221.442V64.7556ZM231.195 54.2889C228.973 54.2889 227.195 54.0074 225.862 53.4444C224.529 52.8815 223.862 52.0296 223.862 50.8889C223.862 49.7333 224.529 48.8741 225.862 48.3111C227.21 47.7333 228.988 47.4444 231.195 47.4444C233.403 47.4444 235.173 47.7333 236.506 48.3111C237.855 48.8741 238.529 49.7333 238.529 50.8889C238.529 52.0296 237.855 52.8815 236.506 53.4444C235.173 54.0074 233.403 54.2889 231.195 54.2889ZM231.195 49.6889C229.877 49.6889 228.818 49.7926 228.018 50C227.232 50.1926 226.84 50.4889 226.84 50.8889C226.84 51.2741 227.232 51.563 228.018 51.7556C228.803 51.9481 229.862 52.0444 231.195 52.0444C232.529 52.0444 233.58 51.9481 234.351 51.7556C235.136 51.563 235.529 51.2741 235.529 50.8889C235.529 50.4889 235.136 50.1926 234.351 50C233.566 49.7926 232.514 49.6889 231.195 49.6889ZM232.595 58.5556H238.373V64.6889H224.018V58.5556H229.795V57.3778H223.018V55.0667H239.373V57.3778H232.595V58.5556ZM226.795 60.8V62.4444H235.573V60.8H226.795Z" fill="#F6F7FB"/>
<path d="M250.8 47.6667C252.904 47.6667 254.607 47.9185 255.911 48.4222C257.215 48.9111 257.867 49.6815 257.867 50.7333C257.867 51.7852 257.215 52.5556 255.911 53.0444C254.607 53.5333 252.904 53.7778 250.8 53.7778C248.696 53.7778 246.985 53.5333 245.667 53.0444C244.363 52.5556 243.711 51.7852 243.711 50.7333C243.711 49.6815 244.363 48.9111 245.667 48.4222C246.985 47.9185 248.696 47.6667 250.8 47.6667ZM250.8 48.9778C249.215 48.9778 247.911 49.1259 246.889 49.4222C245.881 49.7037 245.378 50.1407 245.378 50.7333C245.378 51.3259 245.881 51.763 246.889 52.0444C247.896 52.3259 249.2 52.4667 250.8 52.4667C252.385 52.4667 253.681 52.3259 254.689 52.0444C255.696 51.763 256.2 51.3259 256.2 50.7333C256.2 50.1407 255.689 49.7037 254.667 49.4222C253.659 49.1259 252.37 48.9778 250.8 48.9778ZM242.711 56.3333V55H258.889V56.3333H242.711ZM245.444 61.7111V63.2667H258.022V64.5111H243.889V60.6444H256.156V59.1333H243.844V57.9111H257.733V61.7111H245.444ZM273.37 52.6889V51.1556H277.481V47.6889H279.081V60.4H277.481V52.6889H273.37ZM269.237 53.8C268.644 54.9407 267.903 55.8741 267.014 56.6C266.126 57.3111 265.111 57.7556 263.97 57.9333V56.3556C264.977 56.1481 265.859 55.637 266.614 54.8222C267.37 54.0074 267.94 52.9926 268.326 51.7778C268.726 50.563 268.933 49.2593 268.948 47.8667L270.548 47.9556C270.548 49.5704 270.318 51.0222 269.859 52.3111L275.014 56.6444L273.97 57.8667L269.237 53.8ZM279.459 64.4889H265.414V59.1778H267.037V62.9556H279.459V64.4889ZM282.323 53.4444V47.9333H296.079V53.4444H282.323ZM283.901 49.2444V52.1333H294.479V49.2444H283.901ZM289.99 57.9111H296.123V61.7333H283.834V63.2889H296.412V64.5111H282.279V60.6444H294.545V59.1333H282.234V57.9111H288.39V56.2H281.101V54.8889H297.279V56.2H289.99V57.9111ZM314.476 63.8889H298.299V62.3556H305.543V58.8444H299.454V52.8444H311.788V49.8667H299.432V48.3556H313.388V54.3111H301.032V57.3333H313.632V58.8444H307.143V62.3556H314.476V63.8889ZM327.246 51.8667C326.476 52.5778 325.469 53.1333 324.224 53.5333C322.995 53.9185 321.706 54.1259 320.357 54.1556V52.7556C321.335 52.7259 322.298 52.5778 323.246 52.3111C324.209 52.0296 325.032 51.637 325.713 51.1333C326.395 50.6148 326.817 50.0074 326.98 49.3111H320.646V47.9333H334.513V49.3111H328.713C328.639 49.8593 328.491 50.3185 328.269 50.6889L334.957 52.8889L334.513 54.2222L327.246 51.8667ZM335.669 57H319.491V55.6H335.669V57ZM327.58 58.6667C329.683 58.6667 331.387 58.9037 332.691 59.3778C333.995 59.837 334.646 60.6074 334.646 61.6889C334.646 62.7704 333.995 63.5481 332.691 64.0222C331.387 64.5111 329.683 64.7556 327.58 64.7556C325.476 64.7556 323.765 64.5111 322.446 64.0222C321.143 63.5481 320.491 62.7704 320.491 61.6889C320.491 60.6074 321.143 59.837 322.446 59.3778C323.765 58.9037 325.476 58.6667 327.58 58.6667ZM327.58 63.4C329.12 63.4 330.402 63.2667 331.424 63C332.446 62.7333 332.957 62.2963 332.957 61.6889C332.957 61.0963 332.446 60.6741 331.424 60.4222C330.402 60.1556 329.12 60.0222 327.58 60.0222C326.039 60.0222 324.75 60.1556 323.713 60.4222C322.691 60.6741 322.18 61.0963 322.18 61.6889C322.18 62.2963 322.691 62.7333 323.713 63C324.75 63.2667 326.039 63.4 327.58 63.4ZM350.266 47.6889H351.866V57.2889H350.266V52.4889H346.933V51.0222H350.266V47.6889ZM342.355 53.2C341.822 54.1778 341.096 54.9778 340.177 55.6C339.259 56.2074 338.207 56.5852 337.022 56.7333V55.2222C338.414 55 339.518 54.4 340.333 53.4222C341.163 52.4296 341.637 51.163 341.755 49.6222H337.222V48.1778H347.6V49.6222H343.377C343.333 50.437 343.2 51.1778 342.977 51.8444L348.133 55.3111L347.311 56.5778L342.355 53.2ZM345.066 57.9111C347.155 57.9111 348.829 58.1926 350.088 58.7556C351.363 59.3037 352 60.1556 352 61.3111C352 62.4667 351.363 63.3259 350.088 63.8889C348.829 64.437 347.155 64.7111 345.066 64.7111C342.977 64.7111 341.303 64.437 340.044 63.8889C338.785 63.3259 338.155 62.4667 338.155 61.3111C338.155 60.1556 338.785 59.3037 340.044 58.7556C341.303 58.1926 342.977 57.9111 345.066 57.9111ZM345.066 63.3111C346.622 63.3111 347.881 63.1407 348.844 62.8C349.822 62.4593 350.311 61.963 350.311 61.3111C350.311 60.6593 349.822 60.163 348.844 59.8222C347.866 59.4815 346.607 59.3111 345.066 59.3111C343.525 59.3111 342.266 59.4815 341.288 59.8222C340.325 60.163 339.844 60.6593 339.844 61.3111C339.844 61.963 340.325 62.4593 341.288 62.8C342.266 63.1407 343.525 63.3111 345.066 63.3111ZM353.864 50.5333V49.2H358.553V47.3778H360.175V49.2H364.864V50.5333H353.864ZM368.486 52.9556V57.4222H366.886V47.6889H368.486V51.4H370.842V52.9556H368.486ZM359.375 57.4889C357.997 57.4889 356.864 57.2148 355.975 56.6667C355.086 56.1185 354.642 55.3926 354.642 54.4889C354.642 53.5852 355.086 52.8593 355.975 52.3111C356.864 51.763 357.997 51.4889 359.375 51.4889C360.264 51.4889 361.064 51.6148 361.775 51.8667C362.501 52.1037 363.064 52.4519 363.464 52.9111C363.879 53.3556 364.086 53.8815 364.086 54.4889C364.086 55.0963 363.879 55.6296 363.464 56.0889C363.064 56.5333 362.501 56.8815 361.775 57.1333C361.064 57.3704 360.264 57.4889 359.375 57.4889ZM359.375 52.7556C358.412 52.7556 357.634 52.9185 357.042 53.2444C356.464 53.5704 356.175 53.9852 356.175 54.4889C356.175 54.9926 356.464 55.4074 357.042 55.7333C357.634 56.0593 358.412 56.2222 359.375 56.2222C360.338 56.2222 361.108 56.0593 361.686 55.7333C362.264 55.4074 362.553 54.9926 362.553 54.4889C362.553 53.9852 362.264 53.5704 361.686 53.2444C361.108 52.9185 360.338 52.7556 359.375 52.7556ZM368.486 58.1778V64.4889H355.042V58.1778H356.619V59.9111H366.908V58.1778H368.486ZM366.908 61.2H356.619V63.1556H366.908V61.2ZM384.528 64.7778V47.6889H386.15V64.7556L384.528 64.7778ZM378.706 62.1333C379.476 62.1333 380.239 62.0593 380.995 61.9111C381.765 61.7481 382.402 61.5407 382.906 61.2889V62.8444C382.417 63.1111 381.787 63.3185 381.017 63.4667C380.262 63.6148 379.491 63.6889 378.706 63.6889H372.062V48.2444H373.706V62.1333H378.706ZM402.881 56.3556V64.7556H401.281V47.6889H402.881V54.7556H405.237V56.3556H402.881ZM395.526 62.1556C396.296 62.1556 397.067 62.0815 397.837 61.9333C398.607 61.7704 399.237 61.563 399.726 61.3111V62.8667C399.252 63.1185 398.622 63.3185 397.837 63.4667C397.052 63.6148 396.259 63.6889 395.459 63.6889H389.104V48.3556H398.459V49.8889H390.726V62.1556H395.526ZM408.635 48.4444L408.324 59.3333H407.035L406.701 48.4444H408.635ZM407.657 64.1111C407.331 64.1111 407.049 64 406.812 63.7778C406.59 63.5556 406.479 63.2815 406.479 62.9556C406.479 62.6296 406.59 62.3556 406.812 62.1333C407.049 61.9111 407.331 61.8 407.657 61.8C407.998 61.8 408.279 61.9111 408.501 62.1333C408.738 62.3556 408.857 62.6296 408.857 62.9556C408.857 63.2815 408.738 63.5556 408.501 63.7778C408.279 64 407.998 64.1111 407.657 64.1111Z" fill="#F6F7FB"/>
<defs>
<filter id="filter0_d_6863_915" x="80.5" y="0" width="251" height="40" filterUnits="userSpaceOnUse" color-interpolation-filters="sRGB">
<feFlood flood-opacity="0" result="BackgroundImageFix"/>
<feColorMatrix in="SourceAlpha" type="matrix" values="0 0 0 0 0 0 0 0 0 0 0 0 0 0 0 0 0 0 127 0" result="hardAlpha"/>
<feOffset/>
<feGaussianBlur stdDeviation="2"/>
<feComposite in2="hardAlpha" operator="out"/>
<feColorMatrix type="matrix" values="0 0 0 0 1 0 0 0 0 1 0 0 0 0 1 0 0 0 0.25 0"/>
<feBlend mode="normal" in2="BackgroundImageFix" result="effect1_dropShadow_6863_915"/>
<feBlend mode="normal" in="SourceGraphic" in2="effect1_dropShadow_6863_915" result="shape"/>
</filter>
</defs>
</svg>
