<svg width="315" height="55" viewBox="0 0 315 55" fill="none" xmlns="http://www.w3.org/2000/svg">
<path d="M18.8222 2.52187H22.7422V20.2552H18.8222V11.3885H15.3689V7.77964H18.8222V2.52187ZM8.96 12.4152C8.06815 13.7841 6.95852 14.8833 5.63111 15.713C4.32444 16.5426 2.88296 16.9989 1.30667 17.0819V13.3485C2.88296 13.1826 4.16889 12.4567 5.16444 11.1708C6.18074 9.86409 6.78222 8.27742 6.96889 6.41075H1.58667V2.8952H16.0844V6.41075H10.92C10.8993 7.30261 10.7541 8.19446 10.4844 9.08631L16.9556 13.9396L14.7467 16.8952L8.96 12.4152ZM23.1156 26.3219H2.70667V18.1708H6.72V22.6196H23.1156V26.3219ZM33.1612 9.17964C33.1197 11.2745 33.016 12.9026 32.8501 14.0641L38.0456 23.0863L34.9967 24.9219L31.7612 19.1352C30.4545 22.9722 28.3804 24.9945 25.5389 25.2019V21.2508C26.7419 21.0433 27.6752 19.8715 28.3389 17.7352C29.0234 15.5989 29.3863 12.7471 29.4278 9.17964H25.8812V5.47742H29.4278V2.42853H33.1612V5.47742H36.7078V9.17964H33.1612ZM47.8767 26.4152H44.2056V2.52187H47.8767V26.4152ZM42.0901 2.6152V26.0108H38.4189V15.6819H35.7434V11.793H38.4189V2.6152H42.0901ZM68.8969 16.1485V2.6152H72.5369V7.0952H74.9947V2.52187H78.6658V16.9885H74.9947V10.8285H72.5369V16.1485H68.8969ZM67.7147 15.2463C67.0717 15.5159 66.2317 15.7233 65.1947 15.8685C64.1784 16.0137 63.0895 16.0863 61.928 16.0863H56.7947V7.99742H63.1413V6.03742H56.7947V2.8952H66.7813V10.953H60.4036V12.913H62.1458C64.531 12.913 66.3873 12.6433 67.7147 12.1041V15.2463ZM68.3991 17.1752C71.5724 17.1752 74.1132 17.5485 76.0213 18.2952C77.9295 19.0419 78.8836 20.2448 78.8836 21.9041C78.8836 23.5633 77.9295 24.7559 76.0213 25.4819C74.1132 26.2285 71.5724 26.6019 68.3991 26.6019C65.2258 26.6019 62.685 26.2285 60.7769 25.4819C58.8895 24.7559 57.9458 23.5633 57.9458 21.9041C57.9458 20.2448 58.8895 19.0419 60.7769 18.2952C62.685 17.5485 65.2258 17.1752 68.3991 17.1752ZM68.3991 23.4596C70.2658 23.4596 71.7902 23.3352 72.9724 23.0863C74.1547 22.8374 74.7458 22.4433 74.7458 21.9041C74.7458 21.3648 74.1443 20.9708 72.9413 20.7219C71.7591 20.4522 70.245 20.3174 68.3991 20.3174C66.5532 20.3174 65.0391 20.4522 63.8569 20.7219C62.6954 20.9708 62.1147 21.3648 62.1147 21.9041C62.1147 22.4433 62.6954 22.8374 63.8569 23.0863C65.0391 23.3352 66.5532 23.4596 68.3991 23.4596ZM98.7292 16.0241V2.52187H102.68V16.0241H98.7292ZM95.4936 6.56631C95.4936 9.73964 94.2284 12.0626 91.6981 13.5352C89.1884 15.0078 85.8284 15.7441 81.6181 15.7441V12.633C83.8166 12.633 85.6521 12.4878 87.1247 12.1974C88.5973 11.8863 89.7173 11.3782 90.4847 10.673H81.6181V7.6552H91.6981C91.7188 7.46853 91.7292 7.17816 91.7292 6.78409V5.9752H81.6181V2.8952H95.4936V6.56631ZM92.6936 16.553C95.8047 16.553 98.2832 16.9574 100.129 17.7663C101.996 18.5545 102.929 19.83 102.929 21.593C102.929 23.3352 101.996 24.6004 100.129 25.3885C98.2832 26.1974 95.8047 26.6019 92.6936 26.6019C89.6032 26.6019 87.1247 26.1974 85.2581 25.3885C83.4121 24.6004 82.4892 23.3352 82.4892 21.593C82.4892 19.83 83.4121 18.5545 85.2581 17.7663C87.1247 16.9574 89.6032 16.553 92.6936 16.553ZM92.6936 23.3352C94.4773 23.3352 95.9188 23.19 97.0181 22.8996C98.1381 22.6093 98.6981 22.1737 98.6981 21.593C98.6981 20.9915 98.1381 20.5456 97.0181 20.2552C95.9188 19.9648 94.4773 19.8196 92.6936 19.8196C90.9099 19.8196 89.4684 19.9648 88.3692 20.2552C87.2699 20.5456 86.7203 20.9915 86.7203 21.593C86.7203 22.1737 87.2699 22.6093 88.3692 22.8996C89.4684 23.19 90.9099 23.3352 92.6936 23.3352Z" fill="white"/>
<path d="M10.2444 45.8241V36.1352H11.7556V39.7796H14.6889V36.0463H16.2222V46.4241H14.6889V41.313H11.7556V45.8241H10.2444ZM9.06667 44.713C8.04444 45.1426 6.46667 45.3574 4.33333 45.3574H1.26667V40.2463H6.55556V37.8685H1.26667V36.513H8.08889V41.5574H2.75556V43.9796H4.46667C6.54074 43.9796 8.07407 43.7648 9.06667 43.3352V44.713ZM9.28889 46.8241C11.3926 46.8241 13.1111 47.0759 14.4444 47.5796C15.7778 48.0685 16.4444 48.8611 16.4444 49.9574C16.4444 51.0537 15.7778 51.8463 14.4444 52.3352C13.1259 52.8241 11.4074 53.0685 9.28889 53.0685C7.17037 53.0685 5.45185 52.8241 4.13333 52.3352C2.81481 51.8463 2.15556 51.0537 2.15556 49.9574C2.15556 48.8611 2.81481 48.0685 4.13333 47.5796C5.46667 47.0759 7.18519 46.8241 9.28889 46.8241ZM9.28889 51.713C10.8444 51.713 12.1481 51.5722 13.2 51.2908C14.2519 51.0093 14.7778 50.5648 14.7778 49.9574C14.7778 49.35 14.2519 48.9056 13.2 48.6241C12.1481 48.3278 10.8444 48.1796 9.28889 48.1796C7.74815 48.1796 6.45185 48.3278 5.4 48.6241C4.34815 48.9056 3.82222 49.35 3.82222 49.9574C3.82222 50.5648 4.34815 51.0093 5.4 51.2908C6.45185 51.5722 7.74815 51.713 9.28889 51.713ZM31.3532 45.7352V36.0463H32.9754V45.7352H31.3532ZM28.2421 38.7796C28.2421 41.0167 27.3754 42.6611 25.6421 43.713C23.9088 44.75 21.5384 45.2685 18.531 45.2685V43.8908C22.4273 43.8908 24.931 43.0537 26.0421 41.3796H18.531V40.0241H26.5532C26.6273 39.7574 26.6643 39.4019 26.6643 38.9574V37.8685H18.531V36.513H28.2421V38.7796ZM26.2421 46.3796C28.331 46.3796 30.0125 46.6537 31.2865 47.2019C32.5754 47.75 33.2199 48.5945 33.2199 49.7352C33.2199 50.8759 32.5754 51.7204 31.2865 52.2685C30.0125 52.8019 28.331 53.0685 26.2421 53.0685C24.1532 53.0685 22.4717 52.8019 21.1977 52.2685C19.9236 51.7204 19.2865 50.8759 19.2865 49.7352C19.2865 48.5945 19.9236 47.75 21.1977 47.2019C22.4717 46.6537 24.1532 46.3796 26.2421 46.3796ZM26.2421 51.6685C27.7977 51.6685 29.0643 51.5056 30.0421 51.1796C31.0347 50.8537 31.531 50.3722 31.531 49.7352C31.531 49.0982 31.0347 48.6167 30.0421 48.2908C29.0643 47.95 27.7977 47.7796 26.2421 47.7796C24.6865 47.7796 23.4199 47.95 22.4421 48.2908C21.4643 48.6167 20.9754 49.0982 20.9754 49.7352C20.9754 50.3722 21.4643 50.8537 22.4421 51.1796C23.4199 51.5056 24.6865 51.6685 26.2421 51.6685ZM43.1953 35.9574C44.5138 35.9574 45.7138 36.0982 46.7953 36.3796C47.8768 36.6611 48.7361 37.0833 49.3731 37.6463C50.0101 38.1945 50.3286 38.8685 50.3286 39.6685C50.3286 40.4685 50.0101 41.15 49.3731 41.713C48.7361 42.2611 47.8768 42.6759 46.7953 42.9574C45.7138 43.2241 44.5138 43.3574 43.1953 43.3574C41.1361 43.3574 39.4249 43.0389 38.062 42.4019C36.7138 41.7648 36.0398 40.8537 36.0398 39.6685C36.0398 38.8685 36.3583 38.1945 36.9953 37.6463C37.6324 37.0833 38.4916 36.6611 39.5731 36.3796C40.6694 36.0982 41.8768 35.9574 43.1953 35.9574ZM43.1953 37.3574C41.6694 37.3574 40.3731 37.5648 39.3064 37.9796C38.2546 38.3945 37.7286 38.9574 37.7286 39.6685C37.7286 40.3796 38.2546 40.9426 39.3064 41.3574C40.3583 41.7574 41.6546 41.9574 43.1953 41.9574C44.7212 41.9574 46.0101 41.7574 47.062 41.3574C48.1138 40.9426 48.6398 40.3796 48.6398 39.6685C48.6398 38.9574 48.1138 38.3945 47.062 37.9796C46.0101 37.5648 44.7212 37.3574 43.1953 37.3574ZM35.1064 46.4685V45.0241H51.2842V46.4685H35.1064ZM50.4175 51.4019V52.8685H36.2842V48.0463H37.9064V51.4019H50.4175Z" fill="#F6F7FB"/>
<path d="M72.2444 53.113H69.4444V45.313H66.8444V42.4241H69.4444V36.0463H72.2444V53.113ZM63.6 49.6019C64.3556 49.6019 65.1185 49.5278 65.8889 49.3796C66.6593 49.2315 67.2963 49.0389 67.8 48.8019V51.4241C67.3111 51.6759 66.6667 51.8759 65.8667 52.0241C65.0667 52.1722 64.2444 52.2463 63.4 52.2463H57.3333V43.0241H63.1778V39.1796H57.2889V36.513H65.9778V45.6463H60.1333V49.6019H63.6ZM86.531 45.2908V36.0463H89.3532V45.2908H86.531ZM81.4865 41.9796C82.3458 41.9796 83.1458 41.9278 83.8865 41.8241C84.6273 41.7056 85.2199 41.5426 85.6643 41.3352V43.8241C85.2199 44.0315 84.6199 44.1945 83.8643 44.313C83.1236 44.4167 82.3162 44.4685 81.4421 44.4685H74.4199V36.2019H77.2421V41.9796H81.4865ZM82.2199 45.6019C84.4421 45.6019 86.2125 45.9056 87.531 46.513C88.8643 47.1204 89.531 48.0908 89.531 49.4241C89.531 50.7426 88.8643 51.713 87.531 52.3352C86.1977 52.9426 84.4273 53.2463 82.2199 53.2463C80.0125 53.2463 78.2421 52.9426 76.9088 52.3352C75.5902 51.713 74.931 50.7426 74.931 49.4241C74.931 48.0908 75.5902 47.1204 76.9088 46.513C78.2421 45.9056 80.0125 45.6019 82.2199 45.6019ZM82.2199 47.9796C80.9606 47.9796 79.931 48.1056 79.131 48.3574C78.3458 48.5945 77.9532 48.95 77.9532 49.4241C77.9532 49.913 78.3458 50.2759 79.131 50.513C79.931 50.75 80.9606 50.8685 82.2199 50.8685C83.494 50.8685 84.5236 50.75 85.3088 50.513C86.1088 50.2759 86.5088 49.913 86.5088 49.4241C86.5088 48.95 86.1088 48.5945 85.3088 48.3574C84.5088 48.1056 83.4791 47.9796 82.2199 47.9796ZM110.634 53.113H107.834V45.2908H104.145C103.553 47.4833 102.516 49.1871 101.034 50.4019C99.5528 51.6167 97.7454 52.2241 95.6121 52.2241V49.4241C97.6121 49.4241 99.1454 48.6833 100.212 47.2019C101.279 45.7056 101.812 43.6389 101.812 41.0019V39.2019H95.6121V36.513H104.679V40.9796C104.679 41.3352 104.649 41.8537 104.59 42.5352H107.834V36.0463H110.634V53.113ZM124.921 53.113V36.0463H127.743V53.113H124.921ZM115.788 45.6241V49.6019H119.699C120.454 49.6019 121.21 49.5278 121.965 49.3796C122.736 49.2167 123.38 49.0167 123.899 48.7796V51.4241C123.41 51.6759 122.773 51.8759 121.988 52.0241C121.202 52.1722 120.402 52.2463 119.588 52.2463H112.988V43.0019H119.543V39.1796H112.965V36.513H122.321V45.6241H115.788Z" fill="#F6F7FB"/>
<path d="M133.511 39.9574V41.4463H145.933V42.6019H131.956V38.8908H144.156V37.4463H131.933V36.2908H145.689V39.9574H133.511ZM130.711 45.2685V44.0019H146.889V45.2685H130.711ZM133.422 50.2685V51.713H146.022V52.8685H131.889V49.2019H144.178V47.8019H131.844V46.6685H145.733V50.2685H133.422ZM165.348 53.113V36.0463H166.97V53.113H165.348ZM161.637 40.713C161.637 42.9796 161.274 44.9648 160.548 46.6685C159.822 48.3574 158.785 49.6685 157.437 50.6019C156.103 51.5352 154.526 52.0019 152.703 52.0019V50.4019C154.2 50.4019 155.496 50.0093 156.592 49.2241C157.688 48.4389 158.526 47.3278 159.103 45.8908C159.696 44.4389 159.992 42.7352 159.992 40.7796V38.2463H152.703V36.713H161.637V40.713ZM176.834 40.6685C176.064 41.513 175.057 42.1648 173.812 42.6241C172.582 43.0833 171.301 43.3278 169.968 43.3574V41.913C170.945 41.8833 171.916 41.7056 172.879 41.3796C173.842 41.0389 174.664 40.5574 175.345 39.9352C176.042 39.313 176.464 38.5796 176.612 37.7352H170.257V36.2908H184.123V37.7352H178.301C178.212 38.3722 178.034 38.95 177.768 39.4685L184.545 42.0908L184.034 43.4463L176.834 40.6685ZM185.279 46.3574H177.99V49.4241H176.39V46.3574H169.101V44.913H185.279V46.3574ZM184.412 51.4019V52.8685H170.279V48.0463H171.901V51.4019H184.412ZM194.388 36.4463C195.839 36.4463 197.113 36.6685 198.21 37.113C199.306 37.5574 200.15 38.1871 200.743 39.0019C201.336 39.8167 201.632 40.7574 201.632 41.8241C201.632 42.8908 201.336 43.8315 200.743 44.6463C200.15 45.4463 199.306 46.0685 198.21 46.513C197.113 46.9574 195.839 47.1796 194.388 47.1796C192.936 47.1796 191.662 46.9574 190.565 46.513C189.469 46.0685 188.625 45.4463 188.032 44.6463C187.439 43.8315 187.143 42.8908 187.143 41.8241C187.143 40.7574 187.439 39.8167 188.032 39.0019C188.625 38.1871 189.469 37.5574 190.565 37.113C191.662 36.6685 192.936 36.4463 194.388 36.4463ZM194.388 37.9796C193.276 37.9796 192.299 38.1426 191.454 38.4685C190.625 38.7796 189.98 39.2241 189.521 39.8019C189.062 40.3796 188.832 41.0537 188.832 41.8241C188.832 42.5796 189.062 43.2463 189.521 43.8241C189.98 44.4019 190.625 44.8537 191.454 45.1796C192.299 45.4908 193.276 45.6463 194.388 45.6463C195.499 45.6463 196.469 45.4908 197.299 45.1796C198.143 44.8537 198.795 44.4019 199.254 43.8241C199.713 43.2463 199.943 42.5796 199.943 41.8241C199.943 41.0537 199.713 40.3796 199.254 39.8019C198.795 39.2241 198.143 38.7796 197.299 38.4685C196.469 38.1426 195.499 37.9796 194.388 37.9796ZM186.299 52.2463V50.6685H202.476V52.2463H186.299ZM219.674 52.2463H203.496V50.713H210.741V47.2019H204.652V41.2019H216.985V38.2241H204.63V36.713H218.585V42.6685H206.23V45.6908H218.83V47.2019H212.341V50.713H219.674V52.2463ZM232.311 40.9796C231.525 41.75 230.496 42.3426 229.222 42.7574C227.963 43.1722 226.674 43.3945 225.355 43.4241V42.0463C226.274 42.0167 227.207 41.8685 228.155 41.6019C229.103 41.3352 229.925 40.9426 230.622 40.4241C231.333 39.9056 231.792 39.2982 232 38.6019H225.688V37.2241H231.977V35.3574H233.6V37.2241H239.866V38.6019H233.777C233.718 39.0167 233.563 39.4389 233.311 39.8685L240.244 42.1352L239.8 43.4463L232.311 40.9796ZM240.866 46.3574H224.688V44.9352H240.866V46.3574ZM239.688 48.2463V53.0908H238.088V49.6463H225.711V48.2463H239.688ZM255.464 36.0463H257.064V45.6463H255.464V40.8463H252.131V39.3796H255.464V36.0463ZM247.553 41.5574C247.019 42.5352 246.294 43.3352 245.375 43.9574C244.456 44.5648 243.405 44.9426 242.219 45.0908V43.5796C243.612 43.3574 244.716 42.7574 245.531 41.7796C246.36 40.7871 246.834 39.5204 246.953 37.9796H242.419V36.5352H252.797V37.9796H248.575C248.531 38.7945 248.397 39.5352 248.175 40.2019L253.331 43.6685L252.508 44.9352L247.553 41.5574ZM250.264 46.2685C252.353 46.2685 254.027 46.55 255.286 47.113C256.56 47.6611 257.197 48.513 257.197 49.6685C257.197 50.8241 256.56 51.6833 255.286 52.2463C254.027 52.7945 252.353 53.0685 250.264 53.0685C248.175 53.0685 246.501 52.7945 245.242 52.2463C243.982 51.6833 243.353 50.8241 243.353 49.6685C243.353 48.513 243.982 47.6611 245.242 47.113C246.501 46.55 248.175 46.2685 250.264 46.2685ZM250.264 51.6685C251.819 51.6685 253.079 51.4982 254.042 51.1574C255.019 50.8167 255.508 50.3204 255.508 49.6685C255.508 49.0167 255.019 48.5204 254.042 48.1796C253.064 47.8389 251.805 47.6685 250.264 47.6685C248.723 47.6685 247.464 47.8389 246.486 48.1796C245.523 48.5204 245.042 49.0167 245.042 49.6685C245.042 50.3204 245.523 50.8167 246.486 51.1574C247.464 51.4982 248.723 51.6685 250.264 51.6685ZM274.173 46.0463H272.573V36.0463H274.173V46.0463ZM271.128 44.9796C270.15 45.4389 268.284 45.6685 265.528 45.6685H259.084V44.313H263.928V42.2241H260.084V36.4019H269.462V37.7574H261.662V40.8908H269.639V42.2241H265.506V44.313C268.232 44.313 270.106 44.0833 271.128 43.6241V44.9796ZM274.173 46.713V52.8463H260.55V46.713H262.15V48.4685H272.595V46.713H274.173ZM272.595 49.7352H262.15V51.5574H272.595V49.7352ZM289.726 53.1352V36.0463H291.348V53.113L289.726 53.1352ZM283.904 50.4908C284.674 50.4908 285.437 50.4167 286.193 50.2685C286.963 50.1056 287.6 49.8982 288.104 49.6463V51.2019C287.615 51.4685 286.985 51.6759 286.215 51.8241C285.459 51.9722 284.689 52.0463 283.904 52.0463H277.259V36.6019H278.904V50.4908H283.904ZM308.079 44.713V53.113H306.479V36.0463H308.079V43.113H310.435V44.713H308.079ZM300.724 50.513C301.494 50.513 302.264 50.4389 303.035 50.2908C303.805 50.1278 304.435 49.9204 304.924 49.6685V51.2241C304.449 51.4759 303.82 51.6759 303.035 51.8241C302.249 51.9722 301.457 52.0463 300.657 52.0463H294.301V36.713H303.657V38.2463H295.924V50.513H300.724ZM312.343 52.4685C312.003 52.4685 311.714 52.3574 311.477 52.1352C311.255 51.8982 311.143 51.6019 311.143 51.2463C311.143 50.9056 311.255 50.6241 311.477 50.4019C311.714 50.1648 312.003 50.0463 312.343 50.0463C312.684 50.0463 312.966 50.1648 313.188 50.4019C313.425 50.6241 313.543 50.9056 313.543 51.2463C313.543 51.6019 313.425 51.8982 313.188 52.1352C312.966 52.3574 312.684 52.4685 312.343 52.4685Z" fill="#F6F7FB"/>
</svg>
