<svg width="61" height="62" viewBox="0 0 61 62" fill="none" xmlns="http://www.w3.org/2000/svg">
<g filter="url(#filter0_d_6309_8392)">
<path d="M27.3667 3.73858C28.9844 2.5633 31.1748 2.5633 32.7924 3.73858L55.8984 20.5261C57.5161 21.7013 58.1929 23.7846 57.5751 25.6862L48.7494 52.8489C48.1315 54.7506 46.3594 56.0381 44.3599 56.0381H15.7993C13.7998 56.0381 12.0277 54.7506 11.4098 52.8489L2.58411 25.6862C1.96623 23.7846 2.64311 21.7013 4.26075 20.5261L27.3667 3.73858Z" fill="#E8ECEE"/>
<path d="M26.8765 3.06445C28.7862 1.67697 31.373 1.67697 33.2827 3.06445L56.3882 19.8516C58.2978 21.239 59.0969 23.6985 58.3677 25.9434L49.5415 53.1064C48.812 55.3514 46.7203 56.8711 44.3599 56.8711H15.7993C13.4388 56.8711 11.3472 55.3514 10.6177 53.1064L1.7915 25.9434C1.06226 23.6985 1.86139 21.239 3.771 19.8516L26.8765 3.06445Z" stroke="#8C8C97" stroke-width="1.66667"/>
</g>
<g filter="url(#filter1_d_6309_8392)">
<path d="M27.8201 6.71086C29.1682 5.73146 30.9935 5.73146 32.3416 6.71086L53.2134 21.8751C54.5614 22.8545 55.1255 24.5905 54.6106 26.1752L46.6382 50.7115C46.1233 52.2962 44.6466 53.3691 42.9803 53.3691H17.1814C15.5151 53.3691 14.0384 52.2962 13.5235 50.7115L5.55116 26.1752C5.03626 24.5905 5.60033 22.8545 6.94836 21.8751L27.8201 6.71086Z" fill="#D7DAE0"/>
</g>
<path d="M28.4686 13.7397C29.43 13.0412 30.7317 13.0412 31.6931 13.7397L46.7289 24.6639C47.6903 25.3623 48.0925 26.6004 47.7253 27.7305L41.9821 45.4062C41.6149 46.5363 40.5618 47.3015 39.3735 47.3015H20.7882C19.5999 47.3015 18.5468 46.5363 18.1796 45.4062L12.4364 27.7305C12.0692 26.6004 12.4714 25.3623 13.4328 24.6639L28.4686 13.7397Z" fill="#F1F1F1"/>
<g filter="url(#filter2_d_6309_8392)">
<mask id="path-5-outside-1_6309_8392" maskUnits="userSpaceOnUse" x="18.4639" y="19.3057" width="20" height="23" fill="black">
<rect fill="white" x="18.4639" y="19.3057" width="20" height="23"/>
<path d="M36.8416 41.3057H21.4374V37.927L29.025 30.8548C29.7885 30.1295 30.3039 29.5091 30.5711 28.9937C30.8384 28.4592 30.972 27.9438 30.972 27.4475C30.972 26.7413 30.7238 26.2068 30.2275 25.8441C29.7503 25.4624 29.0441 25.2715 28.1087 25.2715C27.3261 25.2715 26.6008 25.4337 25.9327 25.7582C25.2837 26.0827 24.7301 26.5599 24.272 27.1899L20.4639 24.7847C21.2656 23.5822 22.3727 22.6373 23.7852 21.9501C25.1978 21.2438 26.8107 20.8907 28.6241 20.8907C30.1321 20.8907 31.4587 21.1389 32.604 21.6352C33.7684 22.1124 34.6656 22.8091 35.2955 23.7253C35.9254 24.6416 36.2404 25.7105 36.2404 26.9322C36.2404 28.0202 36.0113 29.051 35.5532 30.0245C35.0951 30.9789 34.2075 32.0574 32.8904 33.2599L28.7959 37.0681H36.8416V41.3057Z"/>
</mask>
<path d="M36.8416 41.3057H21.4374V37.927L29.025 30.8548C29.7885 30.1295 30.3039 29.5091 30.5711 28.9937C30.8384 28.4592 30.972 27.9438 30.972 27.4475C30.972 26.7413 30.7238 26.2068 30.2275 25.8441C29.7503 25.4624 29.0441 25.2715 28.1087 25.2715C27.3261 25.2715 26.6008 25.4337 25.9327 25.7582C25.2837 26.0827 24.7301 26.5599 24.272 27.1899L20.4639 24.7847C21.2656 23.5822 22.3727 22.6373 23.7852 21.9501C25.1978 21.2438 26.8107 20.8907 28.6241 20.8907C30.1321 20.8907 31.4587 21.1389 32.604 21.6352C33.7684 22.1124 34.6656 22.8091 35.2955 23.7253C35.9254 24.6416 36.2404 25.7105 36.2404 26.9322C36.2404 28.0202 36.0113 29.051 35.5532 30.0245C35.0951 30.9789 34.2075 32.0574 32.8904 33.2599L28.7959 37.0681H36.8416V41.3057Z" fill="white"/>
<path d="M36.8416 41.3057V42.0749H37.6109V41.3057H36.8416ZM21.4374 41.3057H20.6681V42.0749H21.4374V41.3057ZM21.4374 37.927L20.9129 37.3643L20.6681 37.5925V37.927H21.4374ZM29.025 30.8548L29.5495 31.4175L29.5548 31.4125L29.025 30.8548ZM30.5711 28.9937L31.2541 29.3478L31.2592 29.3377L30.5711 28.9937ZM30.2275 25.8441L29.747 26.4448L29.7601 26.4553L29.7737 26.4652L30.2275 25.8441ZM25.9327 25.7582L25.5966 25.0663L25.5887 25.0702L25.9327 25.7582ZM24.272 27.1899L23.8612 27.8402L24.4703 28.2249L24.8941 27.6423L24.272 27.1899ZM20.4639 24.7847L19.8238 24.358L19.3865 25.0141L20.0531 25.4351L20.4639 24.7847ZM23.7852 21.9501L24.1218 22.6419L24.1292 22.6381L23.7852 21.9501ZM32.604 21.6352L32.2982 22.341L32.3052 22.344L32.3123 22.3469L32.604 21.6352ZM35.2955 23.7253L34.6616 24.1611L34.6616 24.1611L35.2955 23.7253ZM35.5532 30.0245L36.2467 30.3573L36.2492 30.352L35.5532 30.0245ZM32.8904 33.2599L32.3717 32.6918L32.3665 32.6967L32.8904 33.2599ZM28.7959 37.0681L28.272 36.5048L26.8394 37.8373H28.7959V37.0681ZM36.8416 37.0681H37.6109V36.2988H36.8416V37.0681ZM36.8416 41.3057V40.5364H21.4374V41.3057V42.0749H36.8416V41.3057ZM21.4374 41.3057H22.2066V37.927H21.4374H20.6681V41.3057H21.4374ZM21.4374 37.927L21.9619 38.4897L29.5495 31.4175L29.025 30.8548L28.5005 30.2921L20.9129 37.3643L21.4374 37.927ZM29.025 30.8548L29.5548 31.4125C30.3384 30.668 30.9276 29.9774 31.254 29.3478L30.5711 28.9937L29.8882 28.6396C29.6802 29.0408 29.2386 29.5909 28.4952 30.2971L29.025 30.8548ZM30.5711 28.9937L31.2592 29.3377C31.569 28.718 31.7412 28.0852 31.7412 27.4475H30.972H30.2028C30.2028 27.8025 30.1077 28.2005 29.8831 28.6497L30.5711 28.9937ZM30.972 27.4475H31.7412C31.7412 26.5377 31.4074 25.7536 30.6814 25.2231L30.2275 25.8441L29.7737 26.4652C30.0402 26.66 30.2028 26.9449 30.2028 27.4475H30.972ZM30.2275 25.8441L30.7081 25.2435C30.0387 24.708 29.1307 24.5022 28.1087 24.5022V25.2715V26.0407C28.9575 26.0407 29.4619 26.2167 29.747 26.4448L30.2275 25.8441ZM28.1087 25.2715V24.5022C27.2161 24.5022 26.375 24.6882 25.5966 25.0663L25.9327 25.7582L26.2688 26.4502C26.8265 26.1793 27.4361 26.0407 28.1087 26.0407V25.2715ZM25.9327 25.7582L25.5887 25.0702C24.8214 25.4538 24.175 26.0153 23.6499 26.7374L24.272 27.1899L24.8941 27.6423C25.2852 27.1045 25.7459 26.7116 26.2767 26.4463L25.9327 25.7582ZM24.272 27.1899L24.6828 26.5395L20.8746 24.1343L20.4639 24.7847L20.0531 25.4351L23.8612 27.8402L24.272 27.1899ZM20.4639 24.7847L21.1039 25.2114C21.8233 24.1324 22.8211 23.2746 24.1217 22.6418L23.7852 21.9501L23.4487 21.2584C21.9243 22 20.7079 23.0319 19.8238 24.358L20.4639 24.7847ZM23.7852 21.9501L24.1292 22.6381C25.4201 21.9927 26.9124 21.6599 28.6241 21.6599V20.8907V20.1215C26.7091 20.1215 24.9754 20.495 23.4412 21.2621L23.7852 21.9501ZM28.6241 20.8907V21.6599C30.0483 21.6599 31.2673 21.8943 32.2982 22.341L32.604 21.6352L32.9099 20.9293C31.6502 20.3835 30.2159 20.1215 28.6241 20.1215V20.8907ZM32.604 21.6352L32.3123 22.3469C33.3571 22.7751 34.1273 23.3839 34.6616 24.1611L35.2955 23.7253L35.9294 23.2895C35.2038 22.2342 34.1798 21.4496 32.8957 20.9234L32.604 21.6352ZM35.2955 23.7253L34.6616 24.1611C35.1947 24.9365 35.4711 25.8501 35.4711 26.9322H36.2404H37.0096C37.0096 25.571 36.6561 24.3466 35.9294 23.2895L35.2955 23.7253ZM36.2404 26.9322H35.4711C35.4711 27.9083 35.2665 28.8271 34.8572 29.6969L35.5532 30.0245L36.2492 30.352C36.7561 29.2749 37.0096 28.1321 37.0096 26.9322H36.2404ZM35.5532 30.0245L34.8597 29.6916C34.4637 30.5165 33.659 31.5165 32.3717 32.6919L32.8904 33.2599L33.409 33.828C34.7559 32.5982 35.7264 31.4412 36.2467 30.3573L35.5532 30.0245ZM32.8904 33.2599L32.3665 32.6967L28.272 36.5048L28.7959 37.0681L29.3198 37.6313L33.4142 33.8232L32.8904 33.2599ZM28.7959 37.0681V37.8373H36.8416V37.0681V36.2988H28.7959V37.0681ZM36.8416 37.0681H36.0724V41.3057H36.8416H37.6109V37.0681H36.8416Z" fill="#8C8C97" mask="url(#path-5-outside-1_6309_8392)"/>
</g>
<defs>
<filter id="filter0_d_6309_8392" x="0.0909181" y="0.59043" width="59.9773" height="57.7146" filterUnits="userSpaceOnUse" color-interpolation-filters="sRGB">
<feFlood flood-opacity="0" result="BackgroundImageFix"/>
<feColorMatrix in="SourceAlpha" type="matrix" values="0 0 0 0 0 0 0 0 0 0 0 0 0 0 0 0 0 0 127 0" result="hardAlpha"/>
<feOffset/>
<feGaussianBlur stdDeviation="0.3"/>
<feComposite in2="hardAlpha" operator="out"/>
<feColorMatrix type="matrix" values="0 0 0 0 0 0 0 0 0 0 0 0 0 0 0 0 0 0 0.25 0"/>
<feBlend mode="normal" in2="BackgroundImageFix" result="effect1_dropShadow_6309_8392"/>
<feBlend mode="normal" in="SourceGraphic" in2="effect1_dropShadow_6309_8392" result="shape"/>
</filter>
<filter id="filter1_d_6309_8392" x="4.59356" y="5.20733" width="50.9745" height="48.931" filterUnits="userSpaceOnUse" color-interpolation-filters="sRGB">
<feFlood flood-opacity="0" result="BackgroundImageFix"/>
<feColorMatrix in="SourceAlpha" type="matrix" values="0 0 0 0 0 0 0 0 0 0 0 0 0 0 0 0 0 0 127 0" result="hardAlpha"/>
<feOffset/>
<feGaussianBlur stdDeviation="0.384615"/>
<feComposite in2="hardAlpha" operator="out"/>
<feColorMatrix type="matrix" values="0 0 0 0 1 0 0 0 0 1 0 0 0 0 1 0 0 0 0.4 0"/>
<feBlend mode="normal" in2="BackgroundImageFix" result="effect1_dropShadow_6309_8392"/>
<feBlend mode="normal" in="SourceGraphic" in2="effect1_dropShadow_6309_8392" result="shape"/>
</filter>
<filter id="filter2_d_6309_8392" x="19.3862" y="20.1211" width="19.7631" height="23.4926" filterUnits="userSpaceOnUse" color-interpolation-filters="sRGB">
<feFlood flood-opacity="0" result="BackgroundImageFix"/>
<feColorMatrix in="SourceAlpha" type="matrix" values="0 0 0 0 0 0 0 0 0 0 0 0 0 0 0 0 0 0 127 0" result="hardAlpha"/>
<feOffset dx="1.53846" dy="1.53846"/>
<feComposite in2="hardAlpha" operator="out"/>
<feColorMatrix type="matrix" values="0 0 0 0 0.54902 0 0 0 0 0.54902 0 0 0 0 0.592157 0 0 0 1 0"/>
<feBlend mode="normal" in2="BackgroundImageFix" result="effect1_dropShadow_6309_8392"/>
<feBlend mode="normal" in="SourceGraphic" in2="effect1_dropShadow_6309_8392" result="shape"/>
</filter>
</defs>
</svg>
