<svg width="32" height="32" viewBox="0 0 32 32" fill="none" xmlns="http://www.w3.org/2000/svg">
<g opacity="0.6">
<path d="M23.7517 27.4276H7.96473C7.26826 27.4276 6.8042 26.9636 6.8042 26.2671V23.9453H24.9123V26.2671C24.9123 26.8477 24.4482 27.4276 23.7517 27.4276Z" fill="white"/>
<path d="M15.858 8.28527C16.8836 8.28527 17.715 7.45387 17.715 6.42828C17.715 5.40269 16.8836 4.57129 15.858 4.57129C14.8324 4.57129 14.001 5.40269 14.001 6.42828C14.001 7.45387 14.8324 8.28527 15.858 8.28527Z" fill="white"/>
<path d="M27.9307 12.8019C28.9563 12.8019 29.7877 11.9705 29.7877 10.9449C29.7877 9.91929 28.9563 9.08789 27.9307 9.08789C26.9051 9.08789 26.0737 9.91929 26.0737 10.9449C26.0737 11.9705 26.9051 12.8019 27.9307 12.8019Z" fill="white"/>
<path d="M3.78619 12.8019C4.81178 12.8019 5.64319 11.9705 5.64319 10.9449C5.64319 9.91929 4.81178 9.08789 3.78619 9.08789C2.7606 9.08789 1.9292 9.91929 1.9292 10.9449C1.9292 11.9705 2.7606 12.8019 3.78619 12.8019Z" fill="white"/>
<path d="M24.9122 23.9463L26.9679 12.9085C27.0588 12.4202 26.539 12.0463 26.105 12.289L22.4423 14.3366C21.4196 14.9084 20.1286 14.5778 19.5062 13.5851L16.3552 8.56105C16.125 8.19449 15.5913 8.19449 15.3619 8.56105L12.2109 13.5851C11.5885 14.5778 10.2975 14.9077 9.27478 14.3366L5.61211 12.289C5.1781 12.0463 4.65832 12.4195 4.74923 12.9085L6.80489 23.9463" fill="white"/>
<path d="M24.9122 23.9463L26.9679 12.9085C27.0588 12.4202 26.539 12.0463 26.105 12.289L22.4423 14.3366C21.4196 14.9084 20.1286 14.5778 19.5062 13.5851L16.3552 8.56105C16.125 8.19449 15.5913 8.19449 15.3619 8.56105L12.2109 13.5851C11.5885 14.5778 10.2975 14.9077 9.27478 14.3366L5.61211 12.289C5.1781 12.0463 4.65832 12.4195 4.74923 12.9085L6.80489 23.9463" fill="white"/>
</g>
</svg>
