<svg width="61" height="62" viewBox="0 0 61 62" fill="none" xmlns="http://www.w3.org/2000/svg">
<g filter="url(#filter0_d_6309_8398)">
<path d="M27.9439 3.55108C29.5615 2.3758 31.752 2.3758 33.3696 3.55108L56.4756 20.3386C58.0932 21.5138 58.7701 23.5971 58.1522 25.4987L49.3265 52.6614C48.7086 54.5631 46.9365 55.8506 44.937 55.8506H16.3765C14.3769 55.8506 12.6048 54.5631 11.987 52.6614L3.16126 25.4987C2.54338 23.5971 3.22026 21.5138 4.8379 20.3386L27.9439 3.55108Z" fill="#EBC8AA"/>
<path d="M27.4536 2.87695C29.3633 1.48947 31.9502 1.48947 33.8599 2.87695L56.9653 19.6641C58.8749 21.0515 59.6741 23.511 58.9448 25.7559L50.1187 52.9189C49.3892 55.1639 47.2975 56.6836 44.937 56.6836H16.3765C14.016 56.6836 11.9243 55.1639 11.1948 52.9189L2.36865 25.7559C1.63941 23.511 2.43854 21.0515 4.34814 19.6641L27.4536 2.87695Z" stroke="#BC745C" stroke-width="1.66667"/>
</g>
<g filter="url(#filter1_d_6309_8398)">
<path d="M28.3968 6.52336C29.7448 5.54396 31.5702 5.54396 32.9182 6.52336L53.79 21.6876C55.138 22.667 55.7021 24.403 55.1872 25.9877L47.2149 50.524C46.7 52.1087 45.2232 53.1816 43.557 53.1816H17.758C16.0918 53.1816 14.615 52.1087 14.1001 50.524L6.12782 25.9877C5.61292 24.403 6.17699 22.667 7.52502 21.6876L28.3968 6.52336Z" fill="#DAAB9A"/>
</g>
<path d="M29.0453 13.5522C30.0066 12.8537 31.3084 12.8537 32.2697 13.5522L47.3056 24.4764C48.2669 25.1748 48.6692 26.4129 48.302 27.543L42.5588 45.2187C42.1916 46.3488 41.1385 47.114 39.9502 47.114H21.3648C20.1766 47.114 19.1234 46.3488 18.7562 45.2187L13.013 27.543C12.6458 26.4129 13.0481 25.1748 14.0094 24.4764L29.0453 13.5522Z" fill="#EFDCCB"/>
<g filter="url(#filter2_d_6309_8398)">
<mask id="path-5-outside-1_6309_8398" maskUnits="userSpaceOnUse" x="20.1958" y="20.8877" width="20" height="23" fill="black">
<rect fill="white" x="20.1958" y="20.8877" width="20" height="23"/>
<path d="M33.2193 29.8907C34.8991 30.2152 36.1875 30.8928 37.0847 31.9236C37.9818 32.9544 38.4304 34.2046 38.4304 35.6744C38.4304 36.8579 38.1155 37.946 37.4855 38.9386C36.8556 39.9311 35.8917 40.7329 34.5937 41.3437C33.3147 41.9545 31.74 42.2599 29.8693 42.2599C28.4568 42.2599 27.0633 42.0881 25.689 41.7445C24.3146 41.3819 23.1216 40.876 22.1099 40.227L24.1142 36.2185C24.8968 36.7529 25.7749 37.1633 26.7484 37.4497C27.741 37.736 28.7335 37.8791 29.7261 37.8791C30.776 37.8791 31.6063 37.6883 32.2172 37.3065C32.828 36.9247 33.1334 36.3807 33.1334 35.6744C33.1334 34.281 32.0167 33.5843 29.7834 33.5843H27.5214V30.1197L31.3009 26.0253H23.1693V21.845H37.4855V25.2236L33.2193 29.8907Z"/>
</mask>
<path d="M33.2193 29.8907C34.8991 30.2152 36.1875 30.8928 37.0847 31.9236C37.9818 32.9544 38.4304 34.2046 38.4304 35.6744C38.4304 36.8579 38.1155 37.946 37.4855 38.9386C36.8556 39.9311 35.8917 40.7329 34.5937 41.3437C33.3147 41.9545 31.74 42.2599 29.8693 42.2599C28.4568 42.2599 27.0633 42.0881 25.689 41.7445C24.3146 41.3819 23.1216 40.876 22.1099 40.227L24.1142 36.2185C24.8968 36.7529 25.7749 37.1633 26.7484 37.4497C27.741 37.736 28.7335 37.8791 29.7261 37.8791C30.776 37.8791 31.6063 37.6883 32.2172 37.3065C32.828 36.9247 33.1334 36.3807 33.1334 35.6744C33.1334 34.281 32.0167 33.5843 29.7834 33.5843H27.5214V30.1197L31.3009 26.0253H23.1693V21.845H37.4855V25.2236L33.2193 29.8907Z" fill="white"/>
<path d="M33.2193 29.8907L32.6515 29.3717L31.7249 30.3854L33.0734 30.646L33.2193 29.8907ZM37.0847 31.9236L37.6649 31.4186L37.6649 31.4186L37.0847 31.9236ZM37.4855 38.9386L38.135 39.3507L38.135 39.3507L37.4855 38.9386ZM34.5937 41.3437L34.2661 40.6477L34.2621 40.6496L34.5937 41.3437ZM25.689 41.7445L25.4927 42.4884L25.5024 42.4908L25.689 41.7445ZM22.1099 40.227L21.4219 39.883L21.1128 40.5012L21.6946 40.8745L22.1099 40.227ZM24.1142 36.2185L24.548 35.5832L23.8203 35.0862L23.4262 35.8745L24.1142 36.2185ZM26.7484 37.4497L26.5313 38.1876L26.5352 38.1888L26.7484 37.4497ZM32.2172 37.3065L31.8095 36.6542L31.8095 36.6542L32.2172 37.3065ZM27.5214 33.5843H26.7522V34.3535H27.5214V33.5843ZM27.5214 30.1197L26.9562 29.598L26.7522 29.819V30.1197H27.5214ZM31.3009 26.0253L31.8662 26.5471L33.0578 25.2561H31.3009V26.0253ZM23.1693 26.0253H22.4001V26.7945H23.1693V26.0253ZM23.1693 21.845V21.0757H22.4001V21.845H23.1693ZM37.4855 21.845H38.2548V21.0757H37.4855V21.845ZM37.4855 25.2236L38.0533 25.7426L38.2548 25.5222V25.2236H37.4855ZM33.2193 29.8907L33.0734 30.646C34.6278 30.9462 35.746 31.5572 36.5045 32.4286L37.0847 31.9236L37.6649 31.4186C36.6291 30.2285 35.1703 29.4841 33.3652 29.1354L33.2193 29.8907ZM37.0847 31.9236L36.5045 32.4286C37.2701 33.3083 37.6612 34.3751 37.6612 35.6744H38.4304H39.1996C39.1996 34.0342 38.6936 32.6004 37.6649 31.4186L37.0847 31.9236ZM38.4304 35.6744H37.6612C37.6612 36.713 37.3872 37.6579 36.8361 38.5264L37.4855 38.9386L38.135 39.3507C38.8437 38.234 39.1996 37.0029 39.1996 35.6744H38.4304ZM37.4855 38.9386L36.8361 38.5264C36.3 39.371 35.4613 40.0852 34.2661 40.6477L34.5937 41.3437L34.9212 42.0397C36.3221 41.3805 37.4112 40.4913 38.135 39.3507L37.4855 38.9386ZM34.5937 41.3437L34.2621 40.6496C33.1143 41.1978 31.6603 41.4907 29.8693 41.4907V42.2599V43.0291C31.8196 43.0291 33.5152 42.7112 34.9252 42.0378L34.5937 41.3437ZM29.8693 42.2599V41.4907C28.5198 41.4907 27.1891 41.3267 25.8755 40.9983L25.689 41.7445L25.5024 42.4908C26.9376 42.8496 28.3937 43.0291 29.8693 43.0291V42.2599ZM25.689 41.7445L25.8852 41.0008C24.5747 40.6549 23.4584 40.1781 22.5253 39.5796L22.1099 40.227L21.6946 40.8745C22.7848 41.5739 24.0545 42.1088 25.4927 42.4883L25.689 41.7445ZM22.1099 40.227L22.7979 40.571L24.8022 36.5625L24.1142 36.2185L23.4262 35.8745L21.4219 39.883L22.1099 40.227ZM24.1142 36.2185L23.6804 36.8537C24.534 37.4366 25.4861 37.8802 26.5313 38.1876L26.7484 37.4497L26.9654 36.7117C26.0636 36.4465 25.2596 36.0692 24.548 35.5832L24.1142 36.2185ZM26.7484 37.4497L26.5352 38.1888C27.5942 38.4943 28.6585 38.6484 29.7261 38.6484V37.8791V37.1099C28.8086 37.1099 27.8877 36.9777 26.9616 36.7106L26.7484 37.4497ZM29.7261 37.8791V38.6484C30.858 38.6484 31.848 38.4443 32.6249 37.9588L32.2172 37.3065L31.8095 36.6542C31.3647 36.9322 30.694 37.1099 29.7261 37.1099V37.8791ZM32.2172 37.3065L32.6249 37.9588C33.4551 37.4399 33.9026 36.6523 33.9026 35.6744H33.1334H32.3642C32.3642 36.1091 32.2008 36.4096 31.8095 36.6542L32.2172 37.3065ZM33.1334 35.6744H33.9026C33.9026 34.7311 33.5021 33.9527 32.7031 33.4542C31.9644 32.9933 30.9552 32.815 29.7834 32.815V33.5843V34.3535C30.845 34.3535 31.5107 34.5236 31.8887 34.7594C32.2063 34.9576 32.3642 35.2243 32.3642 35.6744H33.1334ZM29.7834 33.5843V32.815H27.5214V33.5843V34.3535H29.7834V33.5843ZM27.5214 33.5843H28.2907V30.1197H27.5214H26.7522V33.5843H27.5214ZM27.5214 30.1197L28.0867 30.6415L31.8662 26.5471L31.3009 26.0253L30.7357 25.5036L26.9562 29.598L27.5214 30.1197ZM31.3009 26.0253V25.2561H23.1693V26.0253V26.7945H31.3009V26.0253ZM23.1693 26.0253H23.9385V21.845H23.1693H22.4001V26.0253H23.1693ZM23.1693 21.845V22.6142H37.4855V21.845V21.0757H23.1693V21.845ZM37.4855 21.845H36.7163V25.2236H37.4855H38.2548V21.845H37.4855ZM37.4855 25.2236L36.9178 24.7046L32.6515 29.3717L33.2193 29.8907L33.7871 30.4097L38.0533 25.7426L37.4855 25.2236Z" fill="#BC745C" mask="url(#path-5-outside-1_6309_8398)"/>
</g>
<defs>
<filter id="filter0_d_6309_8398" x="0.668067" y="0.40293" width="59.9773" height="57.7146" filterUnits="userSpaceOnUse" color-interpolation-filters="sRGB">
<feFlood flood-opacity="0" result="BackgroundImageFix"/>
<feColorMatrix in="SourceAlpha" type="matrix" values="0 0 0 0 0 0 0 0 0 0 0 0 0 0 0 0 0 0 127 0" result="hardAlpha"/>
<feOffset/>
<feGaussianBlur stdDeviation="0.3"/>
<feComposite in2="hardAlpha" operator="out"/>
<feColorMatrix type="matrix" values="0 0 0 0 0 0 0 0 0 0 0 0 0 0 0 0 0 0 0.25 0"/>
<feBlend mode="normal" in2="BackgroundImageFix" result="effect1_dropShadow_6309_8398"/>
<feBlend mode="normal" in="SourceGraphic" in2="effect1_dropShadow_6309_8398" result="shape"/>
</filter>
<filter id="filter1_d_6309_8398" x="5.17022" y="5.01983" width="50.9745" height="48.931" filterUnits="userSpaceOnUse" color-interpolation-filters="sRGB">
<feFlood flood-opacity="0" result="BackgroundImageFix"/>
<feColorMatrix in="SourceAlpha" type="matrix" values="0 0 0 0 0 0 0 0 0 0 0 0 0 0 0 0 0 0 127 0" result="hardAlpha"/>
<feOffset/>
<feGaussianBlur stdDeviation="0.384615"/>
<feComposite in2="hardAlpha" operator="out"/>
<feColorMatrix type="matrix" values="0 0 0 0 0 0 0 0 0 0 0 0 0 0 0 0 0 0 0.4 0"/>
<feBlend mode="normal" in2="BackgroundImageFix" result="effect1_dropShadow_6309_8398"/>
<feBlend mode="normal" in="SourceGraphic" in2="effect1_dropShadow_6309_8398" result="shape"/>
</filter>
<filter id="filter2_d_6309_8398" x="21.1128" y="21.0762" width="19.6254" height="23.4916" filterUnits="userSpaceOnUse" color-interpolation-filters="sRGB">
<feFlood flood-opacity="0" result="BackgroundImageFix"/>
<feColorMatrix in="SourceAlpha" type="matrix" values="0 0 0 0 0 0 0 0 0 0 0 0 0 0 0 0 0 0 127 0" result="hardAlpha"/>
<feOffset dx="1.53846" dy="1.53846"/>
<feComposite in2="hardAlpha" operator="out"/>
<feColorMatrix type="matrix" values="0 0 0 0 0.737255 0 0 0 0 0.454902 0 0 0 0 0.360784 0 0 0 1 0"/>
<feBlend mode="normal" in2="BackgroundImageFix" result="effect1_dropShadow_6309_8398"/>
<feBlend mode="normal" in="SourceGraphic" in2="effect1_dropShadow_6309_8398" result="shape"/>
</filter>
</defs>
</svg>
