<svg width="25" height="24" viewBox="0 0 25 24" fill="none" xmlns="http://www.w3.org/2000/svg">
<path d="M16.4751 2.10742C16.5354 1.97119 16.7256 1.96273 16.7983 2.09277L20.4536 8.62988C20.5122 8.73497 20.4537 8.86645 20.3364 8.89355L13.0396 10.5801C12.8945 10.6136 12.7735 10.4672 12.8335 10.3311L13.9956 7.70508C13.1025 7.45743 12.1567 7.4394 11.2485 7.66016C10.1094 7.93715 9.08943 8.57385 8.34033 9.47559C7.59132 10.3773 7.15279 11.4965 7.08936 12.667C7.02599 13.8377 7.34132 14.9982 7.98877 15.9756C8.63619 16.9529 9.5815 17.6954 10.6841 18.0938C11.7868 18.492 12.9892 18.5246 14.1118 18.1865C15.2342 17.8484 16.2182 17.1577 16.9175 16.2168C17.542 15.3764 17.9094 14.3763 17.981 13.3369C17.9951 13.1306 18.1619 12.962 18.3687 12.9619H21.2017C21.4083 12.9621 21.5764 13.1304 21.5679 13.3369C21.4928 15.1465 20.8753 16.8952 19.7915 18.3535C18.6331 19.9121 17.0035 21.0562 15.144 21.6162C13.2845 22.1762 11.2938 22.1226 9.46729 21.4629C7.64085 20.8032 6.07586 19.5721 5.00342 17.9531C3.93097 16.3341 3.40823 14.4128 3.51318 12.4736C3.61817 10.5345 4.34452 8.6803 5.58545 7.18652C6.82639 5.69276 8.51582 4.63842 10.4028 4.17969C12.0788 3.77228 13.8316 3.85518 15.4556 4.40918L16.4751 2.10742Z" fill="#5E66FF"/>
</svg>
